<?xml version="1.0" encoding="utf-8"?>
<!-- Generator: Adobe Illustrator 23.0.3, SVG Export Plug-In . SVG Version: 6.00 Build 0)  -->
<svg version="1.1" id="Layer_1" xmlns="http://www.w3.org/2000/svg" xmlns:xlink="http://www.w3.org/1999/xlink" x="0px" y="0px"
	 viewBox="0 0 128 128" style="enable-background:new 0 0 128 128;" xml:space="preserve">
<style type="text/css">
	.st0{fill:none;stroke:#000000;stroke-width:0.5;stroke-miterlimit:10;}
	.st1{fill:none;stroke:#000000;stroke-width:0.75;stroke-miterlimit:10;}
	.st2{fill:none;stroke:#000000;stroke-width:0.75;stroke-linecap:round;stroke-miterlimit:10;}
</style>
<g>
	<polyline class="st0" points="105.11,70.48 103.03,75.93 96.53,65.46 102.34,66.02 	"/>
	<line class="st0" x1="91.62" y1="67" x2="97.85" y2="67.6"/>
	<polyline class="st0" points="101.69,73.77 99.24,80.19 91.37,67.53 	"/>
	<polygon class="st0" points="101.13,64.08 109.22,64.85 106.33,72.45 	"/>
	<polyline class="st0" points="95.79,74.33 88.19,79.05 87.14,77.36 94.74,72.64 	"/>
	<line class="st1" x1="0" y1="24.42" x2="128" y2="103.58"/>
	<g>
		<g>
			<path class="st2" d="M70.32,50.59c2.91-3.72,8.22-4.73,12.32-2.18c4.39,2.73,5.73,8.51,3,12.89c-0.52,0.83-1.15,1.56-1.85,2.16"
				/>
			<path class="st2" d="M59.6,61.38c-3.66-2.28-4.78-7.09-2.5-10.75c2.28-3.66,7.09-4.78,10.75-2.5c2.87,1.79,4.18,5.13,3.51,8.26"
				/>
			<path class="st2" d="M86.48,60.44c0.47,0.17,0.93,0.4,1.38,0.68c3.55,2.21,4.64,6.89,2.43,10.44c-2.21,3.55-6.89,4.64-10.44,2.43
				"/>
		</g>
		<line class="st2" x1="59.54" y1="61.32" x2="80.09" y2="74.11"/>
	</g>
	<line class="st1" x1="43.6" y1="29.44" x2="57.85" y2="38.33"/>
	<line class="st1" x1="41.91" y1="36.17" x2="56.17" y2="45.07"/>
	<line class="st1" x1="30.12" y1="36.17" x2="44.38" y2="45.07"/>
</g>
</svg>
