<?xml version="1.0" encoding="utf-8"?>
<!-- Generator: Adobe Illustrator 23.0.3, SVG Export Plug-In . SVG Version: 6.00 Build 0)  -->
<svg version="1.1" id="Layer_1" xmlns="http://www.w3.org/2000/svg" xmlns:xlink="http://www.w3.org/1999/xlink" x="0px" y="0px"
	 viewBox="0 0 128 128" style="enable-background:new 0 0 128 128;" xml:space="preserve">
<style type="text/css">
	.st0{fill:none;stroke:#000000;stroke-width:0.75;stroke-miterlimit:10;}
	.st1{fill:none;stroke:#000000;stroke-width:0.5;stroke-miterlimit:10;}
	.st2{fill:none;stroke:#000000;stroke-width:0.75;stroke-linecap:round;stroke-miterlimit:10;}
</style>
<line class="st0" x1="0.47" y1="31.55" x2="127.53" y2="110.64"/>
<g>
	<g>
		<polyline class="st1" points="108.03,70.83 105.02,78.74 95.6,63.57 104.02,64.37 		"/>
		<line class="st1" x1="88.48" y1="65.8" x2="97.52" y2="66.66"/>
		<polyline class="st1" points="103.08,75.61 99.53,84.93 88.12,66.56 		"/>
		<polygon class="st1" points="102.27,61.56 114,62.68 109.81,73.69 		"/>
		<polyline class="st1" points="94.53,76.42 83.51,83.26 81.99,80.82 93.01,73.97 		"/>
	</g>
	<g>
		<g>
			<g>
				<path class="st2" d="M64.24,50.18c3.41-4.37,9.64-5.55,14.46-2.55c5.15,3.21,6.73,9.98,3.52,15.13
					c-0.61,0.98-1.35,1.83-2.18,2.54"/>
				<path class="st2" d="M51.66,62.85c-4.29-2.67-5.61-8.32-2.93-12.61s8.32-5.61,12.61-2.93c3.37,2.1,4.9,6.02,4.12,9.69"/>
				<path class="st2" d="M83.21,61.74c0.55,0.21,1.1,0.47,1.62,0.79c4.17,2.6,5.45,8.08,2.85,12.25c-2.6,4.17-8.08,5.45-12.25,2.85"
					/>
			</g>
			<line class="st2" x1="51.59" y1="62.78" x2="75.71" y2="77.79"/>
		</g>
		<g>
			<line class="st0" x1="32.88" y1="25.36" x2="49.61" y2="35.8"/>
			<line class="st0" x1="30.9" y1="33.27" x2="47.63" y2="43.7"/>
			<line class="st0" x1="17.07" y1="33.27" x2="33.8" y2="43.7"/>
		</g>
	</g>
</g>
</svg>
