<?xml version="1.0" encoding="utf-8"?>
<!-- Generator: Adobe Illustrator 23.0.3, SVG Export Plug-In . SVG Version: 6.00 Build 0)  -->
<svg version="1.1" id="Layer_1" xmlns="http://www.w3.org/2000/svg" xmlns:xlink="http://www.w3.org/1999/xlink" x="0px" y="0px"
	 viewBox="0 0 128 128" style="enable-background:new 0 0 128 128;" xml:space="preserve">
<style type="text/css">
	.st0{fill:none;stroke:#000000;stroke-miterlimit:10;}
	.st1{fill:none;stroke:#000000;stroke-width:0.75;stroke-miterlimit:10;}
	.st2{fill:none;stroke:#000000;stroke-width:0.5;stroke-linecap:round;stroke-miterlimit:10;}
	.st3{fill:none;stroke:#000000;stroke-width:0.5;stroke-miterlimit:10;}
	.st4{fill:none;stroke:#000000;stroke-width:0.5;stroke-linejoin:bevel;stroke-miterlimit:10;}
	.st5{fill:none;stroke:#000000;stroke-width:0.5;stroke-linecap:round;stroke-linejoin:bevel;stroke-miterlimit:10;}
	.st6{fill:none;stroke:#000000;stroke-linecap:round;stroke-miterlimit:10;}
</style>
<g>
	<g>
		<path class="st0" d="M0,89.05c12.8,0,12.8,4,25.6,4c12.8,0,12.8-4,25.6-4c12.8,0,12.8,4,25.6,4c12.8,0,12.8-4,25.6-4
			s12.8,4,25.6,4"/>
	</g>
	<path class="st1" d="M64,24.99"/>
	<path class="st1" d="M23.14,93.01c3.78-1.94,8.33-5.15,10.46-10.42c1.07-2.64,1.04-4.62,1.21-6.54c0.82-9.7,6.43-19.74,13.58-26.03
		c2.28-2.01,8.49-6.95,17.65-8.45c2.08-0.34,8.69-1.22,15.3,1.36c1.12,0.44,4.8,1.97,7.56,5.6c0.8,1.05,1.23,1.63,1.06,2.21
		c-0.7,2.36-9.68-1.25-16.45,1.91c-8.9,4.14-13.48,19.73-9.3,31.57c1.24,3.52,3.07,6.19,4.63,8.05"/>
	<path class="st2" d="M61.93,53.21c-2.68,2.46-8.53,8.56-9.41,17.58c-0.82,8.42,3.11,15.11,5.7,18.59"/>
	<path class="st2" d="M45.9,63.29c-1.34,2.06-4.23,7.13-4.38,14.22c-0.1,4.99,1.2,9.06,2.49,11.88"/>
	<line class="st3" x1="90.91" y1="90.91" x2="90.91" y2="84.99"/>
	<line class="st4" x1="95.61" y1="89.5" x2="95.61" y2="84.99"/>
	<line class="st5" x1="95.61" y1="84.99" x2="90.91" y2="84.99"/>
	<line class="st6" x1="101.85" y1="88.84" x2="101.85" y2="79.28"/>
	<line class="st6" x1="84.68" y1="91.95" x2="84.68" y2="79.48"/>
	<line class="st6" x1="105.52" y1="81.73" x2="93.26" y2="73.13"/>
	<line class="st6" x1="93.26" y1="73.13" x2="81" y2="81.73"/>
</g>
</svg>
