<?xml version="1.0" encoding="utf-8"?>
<!-- Generator: Adobe Illustrator 23.0.3, SVG Export Plug-In . SVG Version: 6.00 Build 0)  -->
<svg version="1.1" id="Layer_1" xmlns="http://www.w3.org/2000/svg" xmlns:xlink="http://www.w3.org/1999/xlink" x="0px" y="0px"
	 viewBox="0 0 128 128" style="enable-background:new 0 0 128 128;" xml:space="preserve">
<style type="text/css">
	.st0{fill:none;stroke:#000000;stroke-miterlimit:10;}
	.st1{fill:none;stroke:#000000;stroke-width:0.5;stroke-miterlimit:10;}
	.st2{fill:none;stroke:#000000;stroke-width:0.5;stroke-linejoin:bevel;stroke-miterlimit:10;}
	.st3{fill:none;stroke:#000000;stroke-width:0.5;stroke-linecap:round;stroke-linejoin:bevel;stroke-miterlimit:10;}
	.st4{fill:none;stroke:#000000;stroke-linecap:round;stroke-miterlimit:10;}
</style>
<g>
	<g>
		<path class="st0" d="M0,69.52c12.8,0,12.8,4,25.6,4c12.8,0,12.8-4,25.6-4c12.8,0,12.8,4,25.6,4c12.8,0,12.8-4,25.6-4
			s12.8,4,25.6,4"/>
	</g>
	<g>
		<path class="st0" d="M0,76.09c12.8,0,12.8,4,25.6,4c12.8,0,12.8-4,25.6-4c12.8,0,12.8,4,25.6,4c12.8,0,12.8-4,25.6-4
			s12.8,4,25.6,4"/>
	</g>
	<g>
		<path class="st0" d="M0,82.65c12.8,0,12.8,4,25.6,4c12.8,0,12.8-4,25.6-4c12.8,0,12.8,4,25.6,4c12.8,0,12.8-4,25.6-4
			s12.8,4,25.6,4"/>
	</g>
	<line class="st1" x1="67.86" y1="72.57" x2="67.86" y2="62.83"/>
	<line class="st2" x1="60.14" y1="70.24" x2="60.14" y2="62.83"/>
	<line class="st3" x1="60.14" y1="62.83" x2="67.86" y2="62.83"/>
	<g>
		<line class="st4" x1="49.9" y1="69.17" x2="49.9" y2="53.44"/>
		<line class="st4" x1="78.1" y1="73.58" x2="78.1" y2="53.41"/>
		<line class="st4" x1="43.85" y1="57.48" x2="64" y2="43.35"/>
		<line class="st4" x1="64" y1="43.35" x2="84.15" y2="57.48"/>
	</g>
</g>
</svg>
