<?xml version="1.0" encoding="utf-8"?>
<!-- Generator: Adobe Illustrator 23.0.3, SVG Export Plug-In . SVG Version: 6.00 Build 0)  -->
<svg version="1.1" id="Layer_1" xmlns="http://www.w3.org/2000/svg" xmlns:xlink="http://www.w3.org/1999/xlink" x="0px" y="0px"
	 viewBox="0 0 128 128" style="enable-background:new 0 0 128 128;" xml:space="preserve">
<style type="text/css">
	.st0{fill:none;stroke:#000000;stroke-width:2;stroke-linecap:round;stroke-miterlimit:10;}
</style>
<g>
	<line class="st0" x1="33.44" y1="32.18" x2="108.29" y2="32.18"/>
	<line class="st0" x1="13.48" y1="42.69" x2="49.65" y2="42.69"/>
	<line class="st0" x1="57.14" y1="42.69" x2="115.77" y2="42.69"/>
	<line class="st0" x1="7.86" y1="51.64" x2="95.81" y2="51.64"/>
	<line class="st0" x1="99.55" y1="51.34" x2="123.26" y2="51.34"/>
	<line class="st0" x1="1" y1="59.98" x2="24.7" y2="59.98"/>
	<line class="st0" x1="31.56" y1="60.29" x2="127" y2="59.98"/>
	<line class="st0" x1="7.24" y1="68.79" x2="68.37" y2="68.79"/>
	<line class="st0" x1="75.85" y1="68.79" x2="120.76" y2="68.63"/>
	<line class="st0" x1="13.48" y1="77.28" x2="33.44" y2="77.28"/>
	<line class="st0" x1="40.92" y1="77.28" x2="77.1" y2="77.28"/>
	<line class="st0" x1="85.83" y1="77.28" x2="113.28" y2="77.28"/>
	<line class="st0" x1="23.46" y1="87.17" x2="74.6" y2="87.17"/>
	<line class="st0" x1="79.59" y1="87.17" x2="103.3" y2="87.17"/>
	<line class="st0" x1="38.43" y1="95.82" x2="95.81" y2="95.82"/>
</g>
</svg>
