<?xml version="1.0" encoding="utf-8"?>
<!-- Generator: Adobe Illustrator 23.0.3, SVG Export Plug-In . SVG Version: 6.00 Build 0)  -->
<svg version="1.1" xmlns="http://www.w3.org/2000/svg" xmlns:xlink="http://www.w3.org/1999/xlink" x="0px" y="0px"
	 viewBox="0 0 128 128" style="enable-background:new 0 0 128 128;" xml:space="preserve">
<style type="text/css">
	.st0{fill:none;stroke:#000000;stroke-width:1.2;stroke-miterlimit:10;}
</style>
<g id="Layer_1">
</g>
<g id="Layer_2">
	<polyline class="st0" points="64.37,56.45 59.9,56.45 76.85,34.21 	"/>
	<polyline class="st0" points="102.01,34.21 118.96,56.45 67.28,56.45 	"/>
	<line class="st0" x1="68.9" y1="60.44" x2="71.93" y2="56.45"/>
	<polyline class="st0" points="106.78,56.45 126.75,82.67 80.94,82.67 	"/>
	<polygon class="st0" points="65.92,34.21 89.53,3.23 113.13,34.21 	"/>
	<polyline class="st0" points="94.12,82.87 94.12,125.77 84.59,125.77 84.59,82.87 	"/>
	<g>
		<g>
			<path d="M25.52,121.85c-8.25-3.32-16.18-6.11-20.58-14.45C0.51,99,1.01,88.62,5.49,80.35c3.23-5.98,7.88-10.94,10.55-17.27
				c2.66-6.29,3.58-12.92,2.19-19.63c-0.16-0.76-1.31-0.44-1.16,0.32c2.18,10.5-1.87,20.2-7.8,28.69
				c-4.44,6.36-8.09,12.44-8.56,20.4c-0.4,6.81,1.51,13.71,5.75,19.1c4.73,6.03,11.88,8.3,18.74,11.05
				C25.92,123.3,26.23,122.14,25.52,121.85L25.52,121.85z"/>
		</g>
	</g>
	<g>
		<g>
			<path d="M17.29,44.1c5.18,2.33,7.75,11.29,8.43,16.2c0.72,5.24,0.86,10.51,0.65,15.79c-0.03,0.77,1.17,0.77,1.2,0
				c0.26-6.61,0.28-13.72-1.42-20.17C25,51.58,22.21,45.01,17.9,43.07C17.2,42.75,16.59,43.78,17.29,44.1L17.29,44.1z"/>
		</g>
	</g>
	<g>
		<g>
			<path d="M48.58,124.88c22.33-4.92,33.19-27.8,33.25-49c0-0.77-1.2-0.77-1.2,0c-0.07,20.68-10.55,43.04-32.37,47.84
				C47.51,123.89,47.83,125.05,48.58,124.88L48.58,124.88z"/>
		</g>
	</g>
	<g>
		<g>
			<path d="M69.21,82.02c-3.51,3.91-6.43,8.95-11.58,10.87c-0.72,0.27-0.41,1.43,0.32,1.16c5.41-2.02,8.41-7.07,12.11-11.18
				C70.57,82.3,69.72,81.44,69.21,82.02L69.21,82.02z"/>
		</g>
	</g>
	<g>
		<g>
			<path d="M81.08,75.3c-4.67,0.9-8.63,3.27-11.87,6.72c-0.53,0.56,0.32,1.41,0.85,0.85c3.11-3.31,6.86-5.54,11.34-6.41
				C82.16,76.31,81.84,75.16,81.08,75.3L81.08,75.3z"/>
		</g>
	</g>
	<g>
		<g>
			<path d="M64.51,51.02c-0.67,4.02-0.8,8.85-3.35,12.19c-2.67,3.5-6.89,4.86-10.95,6.08c-0.74,0.22-0.42,1.38,0.32,1.16
				c4.11-1.24,8.36-2.63,11.23-6.03c3.03-3.59,3.16-8.65,3.91-13.08C65.8,50.59,64.64,50.26,64.51,51.02L64.51,51.02z"/>
		</g>
	</g>
	<g>
		<g>
			<path d="M27.31,76.65c15.14-5.87,21.8-25.9,9.83-38.24c-0.54-0.56-1.39,0.29-0.85,0.85c11.3,11.65,5.01,30.69-9.3,36.24
				C26.28,75.77,26.59,76.93,27.31,76.65L27.31,76.65z"/>
		</g>
	</g>
	<g>
		<g>
			<path d="M36.43,39.41c12.9,3.26,15.11,18.47,13.4,29.63c-0.12,0.76,1.04,1.08,1.16,0.32c1.8-11.81-0.64-27.67-14.24-31.1
				C36,38.07,35.68,39.22,36.43,39.41L36.43,39.41z"/>
		</g>
	</g>
	<g>
		<g>
			<path d="M64.57,51.49c7.24,10.52,4.99,24.99,0.05,35.85c-0.32,0.7,0.72,1.31,1.04,0.61c5.13-11.28,7.46-26.16-0.05-37.07
				C65.17,50.25,64.13,50.85,64.57,51.49L64.57,51.49z"/>
		</g>
	</g>
	<g>
		<g>
			<path d="M24.66,122.99c8.11,2.27,16.25,2.92,24.62,1.93c0.95-0.11,0.96-1.61,0-1.5c-8.21,0.97-16.25,0.35-24.22-1.88
				C24.13,121.28,23.73,122.73,24.66,122.99L24.66,122.99z"/>
		</g>
	</g>
	<g>
		<g>
			<path d="M32.53,118.03c-5.8-8.31-12.03-19.82-2.82-28.23c4.59-4.2,10.5-6.27,13.84-11.79c0.4-0.66-0.64-1.27-1.04-0.61
				c-4.32,7.15-14.12,8.91-17.56,16.75c-3.8,8.68,1.7,17.55,6.54,24.48C31.93,119.26,32.97,118.66,32.53,118.03L32.53,118.03z"/>
		</g>
	</g>
	<g>
		<g>
			<path d="M42.5,77.63c0.94,6.55,1.24,13.73,3.54,19.98c1.12,3.06,2.71,5.67,2.65,9.06c-0.08,4.42-2.27,8.42-5,11.74
				c-0.49,0.59,0.36,1.45,0.85,0.85c3.74-4.56,6.46-10.43,4.88-16.41c-1.02-3.87-2.96-7.3-3.69-11.31
				c-0.85-4.71-1.39-9.49-2.07-14.23C43.55,76.55,42.39,76.88,42.5,77.63L42.5,77.63z"/>
		</g>
	</g>
</g>
</svg>
