<?xml version="1.0" encoding="utf-8"?>
<!-- Generator: Adobe Illustrator 23.0.3, SVG Export Plug-In . SVG Version: 6.00 Build 0)  -->
<svg version="1.1" xmlns="http://www.w3.org/2000/svg" xmlns:xlink="http://www.w3.org/1999/xlink" x="0px" y="0px"
	 viewBox="0 0 128 128" style="enable-background:new 0 0 128 128;" xml:space="preserve">
<style type="text/css">
	.st0{fill:none;stroke:#000000;stroke-miterlimit:10;}
</style>
<g id="Layer_1">
</g>
<g id="Layer_2">
	<g>
		<polyline class="st0" points="64.37,56.45 59.9,56.45 76.85,34.21 		"/>
		<polyline class="st0" points="102.01,34.21 118.96,56.45 67.28,56.45 		"/>
		<line class="st0" x1="68.9" y1="60.44" x2="71.93" y2="56.45"/>
		<polyline class="st0" points="106.78,56.45 126.75,82.67 80.94,82.67 		"/>
		<polygon class="st0" points="65.92,34.21 89.53,3.23 113.13,34.21 		"/>
		<polyline class="st0" points="94.12,81.87 94.12,124.77 84.59,124.77 84.59,81.87 		"/>
		<g>
			<g>
				<g>
					<path d="M25.56,121.71c-8.21-3.3-16.11-6.07-20.49-14.38c-4.4-8.36-3.9-18.68,0.55-26.9c3.24-5.99,7.89-10.96,10.57-17.3
						c2.66-6.32,3.59-12.98,2.19-19.71c-0.2-0.94-1.64-0.54-1.45,0.4c2.17,10.46-1.88,20.12-7.79,28.57
						c-4.46,6.38-8.1,12.49-8.58,20.47c-0.4,6.84,1.53,13.79,5.79,19.21c4.75,6.05,11.92,8.33,18.81,11.09
						C26.06,123.51,26.45,122.06,25.56,121.71L25.56,121.71z"/>
				</g>
			</g>
			<g>
				<g>
					<path d="M17.22,44.23c5.14,2.31,7.69,11.22,8.35,16.09c0.72,5.23,0.85,10.5,0.64,15.77c-0.04,0.97,1.46,0.96,1.5,0
						c0.26-6.62,0.28-13.75-1.43-20.21c-1.16-4.38-3.97-10.99-8.32-12.95C17.1,42.54,16.34,43.83,17.22,44.23L17.22,44.23z"/>
				</g>
			</g>
			<g>
				<g>
					<path d="M48.62,125.03c22.4-4.93,33.3-27.88,33.36-49.14c0-0.97-1.5-0.97-1.5,0c-0.07,20.61-10.51,42.91-32.26,47.7
						C47.28,123.79,47.68,125.23,48.62,125.03L48.62,125.03z"/>
				</g>
			</g>
			<g>
				<g>
					<path d="M69.1,81.91c-3.49,3.88-6.4,8.92-11.51,10.84c-0.9,0.33-0.51,1.79,0.4,1.45c5.45-2.03,8.46-7.08,12.17-11.22
						C70.8,82.26,69.75,81.19,69.1,81.91L69.1,81.91z"/>
				</g>
			</g>
			<g>
				<g>
					<path d="M81.04,75.16c-4.69,0.91-8.68,3.29-11.94,6.76c-0.66,0.7,0.4,1.77,1.06,1.06c3.1-3.3,6.82-5.51,11.28-6.37
						C82.39,76.42,81.98,74.98,81.04,75.16L81.04,75.16z"/>
				</g>
			</g>
			<g>
				<g>
					<path d="M64.37,50.98c-0.67,3.99-0.79,8.82-3.32,12.14c-2.65,3.47-6.85,4.82-10.87,6.03c-0.92,0.28-0.53,1.73,0.4,1.45
						c4.14-1.25,8.41-2.66,11.29-6.06c3.06-3.61,3.2-8.68,3.95-13.15C65.97,50.44,64.53,50.03,64.37,50.98L64.37,50.98z"/>
				</g>
			</g>
			<g>
				<g>
					<path d="M27.35,76.8c15.24-5.91,21.95-26.06,9.89-38.49c-0.67-0.69-1.73,0.37-1.06,1.06c11.22,11.56,4.97,30.47-9.23,35.99
						C26.06,75.7,26.45,77.15,27.35,76.8L27.35,76.8z"/>
				</g>
			</g>
			<g>
				<g>
					<path d="M36.39,39.56C49.2,42.79,51.38,57.92,49.69,69c-0.14,0.94,1.3,1.35,1.45,0.4c1.82-11.89-0.66-27.83-14.34-31.29
						C35.86,37.87,35.46,39.32,36.39,39.56L36.39,39.56z"/>
				</g>
			</g>
			<g>
				<g>
					<path d="M64.44,51.56c7.21,10.47,4.97,24.88,0.05,35.7c-0.4,0.87,0.9,1.64,1.3,0.76c5.15-11.33,7.49-26.26-0.05-37.22
						C65.19,50.01,63.89,50.76,64.44,51.56L64.44,51.56z"/>
				</g>
			</g>
			<g>
				<g>
					<path d="M24.66,122.99c8.11,2.27,16.25,2.92,24.62,1.93c0.95-0.11,0.96-1.61,0-1.5c-8.21,0.97-16.25,0.35-24.22-1.88
						C24.13,121.28,23.73,122.73,24.66,122.99L24.66,122.99z"/>
				</g>
			</g>
			<g>
				<g>
					<path d="M32.33,118.14c-5.87-8.4-12.08-20.01-2.78-28.5c4.57-4.18,10.48-6.25,13.8-11.74c0.25-0.41-0.4-0.79-0.65-0.38
						c-4.32,7.15-14.14,8.92-17.56,16.75c-3.75,8.6,1.75,17.4,6.54,24.25C31.96,118.91,32.61,118.54,32.33,118.14L32.33,118.14z"/>
				</g>
			</g>
			<g>
				<g>
					<path d="M42.72,77.57c0.94,6.55,1.24,13.73,3.54,19.98c1.13,3.08,2.72,5.71,2.66,9.12c-0.08,4.48-2.3,8.53-5.06,11.9
						c-0.3,0.37,0.22,0.9,0.53,0.53c3.68-4.5,6.38-10.29,4.82-16.19c-1.02-3.87-2.96-7.3-3.69-11.31
						c-0.85-4.71-1.39-9.49-2.07-14.23C43.37,76.9,42.65,77.1,42.72,77.57L42.72,77.57z"/>
				</g>
			</g>
		</g>
	</g>
</g>
</svg>
