<?xml version="1.0" encoding="utf-8"?>
<!-- Generator: Adobe Illustrator 23.0.3, SVG Export Plug-In . SVG Version: 6.00 Build 0)  -->
<svg version="1.1" id="Layer_1" xmlns="http://www.w3.org/2000/svg" xmlns:xlink="http://www.w3.org/1999/xlink" x="0px" y="0px"
	 viewBox="0 0 128 128" style="enable-background:new 0 0 128 128;" xml:space="preserve">
<style type="text/css">
	.st0{fill:none;stroke:#000000;stroke-width:2;stroke-miterlimit:10;}
	.st1{fill:none;stroke:#000000;stroke-linecap:round;stroke-miterlimit:10;}
</style>
<g>
	<path class="st0" d="M101.55,84.28c-2.6,3.77-6.95,6.25-11.88,6.25c-5.16,0-9.68-2.72-12.22-6.8
		c-6.57,3.95-10.97,11.12-10.97,19.34c0,12.47,10.11,22.57,22.57,22.57s22.57-10.11,22.57-22.57
		C111.62,95.23,107.62,88.33,101.55,84.28z"/>
	<line class="st0" x1="77.76" y1="84.26" x2="77.76" y2="14.04"/>
	<line class="st0" x1="101.59" y1="84.26" x2="101.59" y2="14.04"/>
	<path class="st0" d="M77.76,14.6c0-7.24,5.33-13.1,11.91-13.1s11.91,5.87,11.91,13.1c0,0.23-0.02,0.46-0.03,0.69"/>
	<line class="st1" x1="102.84" y1="71.09" x2="116.01" y2="71.09"/>
	<line class="st1" x1="102.84" y1="49.78" x2="116.01" y2="49.78"/>
	<line class="st1" x1="102.84" y1="28.46" x2="116.01" y2="28.46"/>
	<line class="st1" x1="89.68" y1="90.53" x2="89.68" y2="25.32"/>
	<g>
		<g>
			<path d="M78.41,82.2c-5.95-8.44-10.95-17.37-8.78-28.08c0.19-0.94-1.25-1.35-1.45-0.4c-2.26,11.11,2.71,20.42,8.93,29.23
				C77.67,83.74,78.97,82.99,78.41,82.2L78.41,82.2z"/>
		</g>
	</g>
	<g>
		<g>
			<path d="M62.21,125.21c3.76-1.51,7.67-2.85,11.19-4.88c0.84-0.48,0.08-1.78-0.76-1.3c-3.41,1.97-7.19,3.27-10.83,4.73
				C60.93,124.11,61.31,125.57,62.21,125.21L62.21,125.21z"/>
		</g>
	</g>
	<g>
		<g>
			<path d="M68.58,53.25c-3.92,1.77-6.44,7.7-7.48,11.64C59.57,70.69,59.6,77.07,59.82,83c0.04,0.96,1.54,0.97,1.5,0
				c-0.18-4.68-0.08-9.36,0.56-14.01c0.62-4.51,2.76-12.33,7.45-14.45C70.22,54.15,69.46,52.86,68.58,53.25L68.58,53.25z"/>
		</g>
	</g>
	<g>
		<g>
			<path d="M41.57,125.43c-19.46-4.34-28.73-24.16-28.82-42.62c0-0.96-1.5-0.97-1.5,0c0.09,19.11,9.83,39.59,29.92,44.07
				C42.11,127.09,42.51,125.64,41.57,125.43L41.57,125.43z"/>
		</g>
	</g>
	<g>
		<g>
			<path d="M11.79,83.54c5.42,1.15,8.99,4.31,12.42,8.48c2.5,3.04,4.88,5.74,8.57,7.27c0.89,0.37,1.28-1.08,0.4-1.45
				c-5.24-2.17-7.63-7.37-11.61-11.03c-2.67-2.46-5.85-3.97-9.38-4.71C11.25,81.89,10.85,83.34,11.79,83.54L11.79,83.54z"/>
		</g>
	</g>
	<g>
		<g>
			<path d="M25.72,60.9c0.67,4.02,0.8,8.56,3.55,11.81c2.59,3.06,6.43,4.33,10.14,5.45c0.93,0.28,1.32-1.17,0.4-1.45
				c-3.59-1.08-7.33-2.27-9.69-5.37c-2.26-2.96-2.36-7.27-2.96-10.84C27.01,59.56,25.57,59.96,25.72,60.9L25.72,60.9z"/>
		</g>
	</g>
	<g>
		<g>
			<path d="M60.61,82.26c-12.67-4.98-18.19-21.69-8.23-32.08c0.67-0.7-0.39-1.76-1.06-1.06c-10.78,11.25-4.83,29.19,8.89,34.59
				C61.11,84.06,61.5,82.61,60.61,82.26L60.61,82.26z"/>
		</g>
	</g>
	<g>
		<g>
			<path d="M51.76,48.93c-12.28,3.22-14.52,17.32-12.89,28.1c0.14,0.95,1.59,0.55,1.45-0.4c-1.5-9.95,0.36-23.25,11.85-26.26
				C53.09,50.13,52.69,48.68,51.76,48.93L51.76,48.93z"/>
		</g>
	</g>
	<g>
		<g>
			<path d="M25.8,60.33c-6.74,9.87-4.67,23.2-0.05,33.39c0.4,0.88,1.69,0.12,1.3-0.76c-4.39-9.68-6.36-22.5,0.05-31.88
				C27.64,60.28,26.34,59.53,25.8,60.33L25.8,60.33z"/>
		</g>
	</g>
	<g>
		<g>
			<path d="M62.26,123.61c-7.13,1.99-14.31,2.55-21.66,1.68c-0.96-0.11-0.95,1.39,0,1.5c7.5,0.89,14.8,0.3,22.06-1.73
				C63.59,124.8,63.19,123.35,62.26,123.61L62.26,123.61z"/>
		</g>
	</g>
	<g>
		<g>
			<g>
				<path d="M47.79,120.62c-5.2-7.45-10.79-17.92-2.53-25.45c4.12-3.76,9.37-5.61,12.39-10.54c0.25-0.41-0.4-0.79-0.65-0.38
					c-4,6.53-13.27,8.18-16.01,15.68c-2.77,7.59,1.98,15.09,6.15,21.07C47.42,121.39,48.07,121.02,47.79,120.62L47.79,120.62z"/>
			</g>
		</g>
		<g>
			<g>
				<path d="M57.02,84.34c0.88,6.17,1.24,12.72,3.43,18.59c2.6,6.99,2.53,12.01-2.41,18.07c-0.3,0.37,0.23,0.9,0.53,0.53
					c3.12-3.83,5.52-8.69,4.52-13.76c-0.7-3.55-2.68-6.69-3.39-10.28c-0.87-4.4-1.33-8.91-1.96-13.34
					C57.67,83.66,56.95,83.87,57.02,84.34L57.02,84.34z"/>
			</g>
		</g>
	</g>
</g>
</svg>
