<?xml version="1.0" encoding="utf-8"?>
<!-- Generator: Adobe Illustrator 23.0.3, SVG Export Plug-In . SVG Version: 6.00 Build 0)  -->
<svg version="1.1" id="Layer_1" xmlns="http://www.w3.org/2000/svg" xmlns:xlink="http://www.w3.org/1999/xlink" x="0px" y="0px"
	 viewBox="0 0 128 128" style="enable-background:new 0 0 128 128;" xml:space="preserve">
<style type="text/css">
	.st0{fill:none;stroke:#000000;stroke-width:2;stroke-miterlimit:10;}
	.st1{fill:none;stroke:#000000;stroke-linecap:round;stroke-miterlimit:10;}
	.st2{fill:none;stroke:#000000;stroke-width:2;stroke-linecap:round;stroke-miterlimit:10;}
</style>
<g>
	<path class="st0" d="M102.79,84.86c-2.62,3.8-7,6.29-11.96,6.29c-5.2,0-9.74-2.74-12.31-6.84c-6.61,3.97-11.05,11.2-11.05,19.47
		c0,12.55,10.18,22.73,22.73,22.73s22.73-10.18,22.73-22.73C112.93,95.88,108.9,88.93,102.79,84.86z"/>
	<line class="st0" x1="78.84" y1="84.83" x2="78.84" y2="14.13"/>
	<line class="st0" x1="102.83" y1="84.83" x2="102.83" y2="14.13"/>
	<path class="st0" d="M78.84,14.69c0-7.29,5.37-13.19,11.99-13.19s11.99,5.91,11.99,13.19c0,0.23-0.02,0.46-0.03,0.69"/>
	<line class="st1" x1="104.09" y1="71.58" x2="117.35" y2="71.58"/>
	<line class="st1" x1="104.09" y1="50.11" x2="117.35" y2="50.11"/>
	<line class="st1" x1="104.09" y1="28.65" x2="117.35" y2="28.65"/>
	<line class="st1" x1="90.83" y1="91.15" x2="91.15" y2="72.21"/>
	<g>
		<g>
			<line class="st2" x1="51.69" y1="44.43" x2="51.69" y2="85.46"/>
			<line class="st2" x1="51.69" y1="53.81" x2="44.65" y2="45.6"/>
			<line class="st2" x1="51.69" y1="53.81" x2="58.72" y2="45.6"/>
		</g>
		<g>
			<line class="st2" x1="51.69" y1="126.5" x2="51.69" y2="85.46"/>
			<line class="st2" x1="51.69" y1="117.12" x2="58.72" y2="125.33"/>
			<line class="st2" x1="51.69" y1="117.12" x2="44.65" y2="125.33"/>
		</g>
	</g>
	<line class="st2" x1="22.67" y1="56.45" x2="51.69" y2="85.46"/>
	<line class="st2" x1="29.31" y1="63.08" x2="18.53" y2="62.25"/>
	<line class="st2" x1="29.31" y1="63.08" x2="28.48" y2="52.3"/>
	<line class="st2" x1="67.47" y1="101.25" x2="51.69" y2="85.46"/>
	<line class="st2" x1="78.84" y1="58.32" x2="51.69" y2="85.46"/>
	<line class="st2" x1="74.07" y1="63.08" x2="74.9" y2="52.3"/>
	<line class="st2" x1="74.07" y1="63.08" x2="78.84" y2="62.71"/>
	<g>
		<line class="st2" x1="22.67" y1="114.48" x2="51.69" y2="85.46"/>
		<line class="st2" x1="29.31" y1="107.85" x2="28.48" y2="118.63"/>
		<line class="st2" x1="29.31" y1="107.85" x2="18.53" y2="108.68"/>
	</g>
	<line class="st2" x1="10.65" y1="85.46" x2="51.69" y2="85.46"/>
	<line class="st2" x1="20.03" y1="85.46" x2="11.83" y2="92.5"/>
	<line class="st2" x1="20.03" y1="85.46" x2="11.83" y2="78.43"/>
	<line class="st2" x1="76.46" y1="85.46" x2="51.69" y2="85.46"/>
</g>
</svg>
