<?xml version="1.0" encoding="utf-8"?>
<!-- Generator: Adobe Illustrator 23.0.3, SVG Export Plug-In . SVG Version: 6.00 Build 0)  -->
<svg version="1.1" id="Layer_1" xmlns="http://www.w3.org/2000/svg" xmlns:xlink="http://www.w3.org/1999/xlink" x="0px" y="0px"
	 viewBox="0 0 128 128" style="enable-background:new 0 0 128 128;" xml:space="preserve">
<style type="text/css">
	.st0{fill:none;stroke:#000000;stroke-miterlimit:10;}
	.st1{fill:none;stroke:#000000;stroke-width:0.5;stroke-miterlimit:10;}
	.st2{fill:none;stroke:#000000;stroke-width:0.5;stroke-linejoin:bevel;stroke-miterlimit:10;}
	.st3{fill:none;stroke:#000000;stroke-width:0.5;stroke-linecap:round;stroke-linejoin:bevel;stroke-miterlimit:10;}
	.st4{fill:none;stroke:#000000;stroke-linecap:round;stroke-miterlimit:10;}
</style>
<g>
	<g>
		<g>
			<path class="st0" d="M0.68,103.6c12.66,0,12.66,4,25.32,4c12.66,0,12.66-4,25.32-4c12.66,0,12.66,4,25.33,4
				c12.66,0,12.66-4,25.33-4s12.66,4,25.33,4"/>
		</g>
		<g>
			<path class="st0" d="M0.68,110.1c12.66,0,12.66,4,25.32,4c12.66,0,12.66-4,25.32-4c12.66,0,12.66,4,25.33,4
				c12.66,0,12.66-4,25.33-4s12.66,4,25.33,4"/>
		</g>
		<g>
			<path class="st0" d="M0.68,116.59c12.66,0,12.66,4,25.32,4c12.66,0,12.66-4,25.32-4c12.66,0,12.66,4,25.33,4
				c12.66,0,12.66-4,25.33-4s12.66,4,25.33,4"/>
		</g>
		<line class="st1" x1="67.82" y1="106.64" x2="67.82" y2="97"/>
		<line class="st2" x1="60.18" y1="104.34" x2="60.18" y2="97"/>
		<line class="st3" x1="60.18" y1="97" x2="67.82" y2="97"/>
		<g>
			<line class="st4" x1="50.05" y1="103.27" x2="50.05" y2="87.72"/>
			<line class="st4" x1="77.95" y1="107.64" x2="77.95" y2="87.69"/>
			<line class="st4" x1="44.07" y1="91.71" x2="64" y2="77.73"/>
			<line class="st4" x1="64" y1="77.73" x2="83.93" y2="91.71"/>
		</g>
	</g>
	<g>
		<g>
			<g>
				<path class="st4" d="M19.69,34.31c0.58-5.48,5.22-9.74,10.85-9.74c6.03,0,10.92,4.89,10.92,10.92c0,1.14-0.18,2.25-0.5,3.28"/>
				<path class="st4" d="M15.73,51.59c-5.02,0-9.1-4.07-9.1-9.1s4.07-9.1,9.1-9.1c3.94,0,7.3,2.51,8.56,6.02"/>
				<path class="st4" d="M41.76,34.1c0.58-0.12,1.17-0.18,1.78-0.18c4.88,0,8.84,3.96,8.84,8.84s-3.96,8.84-8.84,8.84"/>
			</g>
			<line class="st4" x1="15.64" y1="51.57" x2="43.86" y2="51.57"/>
		</g>
		<line class="st4" x1="15.8" y1="54" x2="13.51" y2="62.57"/>
		<line class="st4" x1="23.37" y1="54.02" x2="21.08" y2="62.59"/>
		<line class="st4" x1="30.47" y1="54.03" x2="28.17" y2="62.6"/>
		<line class="st4" x1="38.04" y1="54.05" x2="35.74" y2="62.62"/>
		<line class="st4" x1="44.66" y1="54.07" x2="42.37" y2="62.63"/>
		<line class="st4" x1="17.04" y1="64.24" x2="14.75" y2="72.81"/>
		<line class="st4" x1="24.14" y1="64.25" x2="21.85" y2="72.82"/>
		<line class="st4" x1="31.71" y1="64.27" x2="29.42" y2="72.84"/>
		<line class="st4" x1="38.33" y1="64.28" x2="36.04" y2="72.85"/>
	</g>
	<g>
		<g>
			<g>
				<path class="st4" d="M83.55,19.15c0.58-5.48,5.22-9.74,10.85-9.74c6.03,0,10.92,4.89,10.92,10.92c0,1.14-0.18,2.25-0.5,3.28"/>
				<path class="st4" d="M79.59,36.44c-5.02,0-9.1-4.07-9.1-9.1s4.07-9.1,9.1-9.1c3.94,0,7.3,2.51,8.56,6.02"/>
				<path class="st4" d="M105.62,18.95c0.58-0.12,1.17-0.18,1.78-0.18c4.88,0,8.84,3.96,8.84,8.84s-3.96,8.84-8.84,8.84"/>
			</g>
			<line class="st4" x1="79.5" y1="36.42" x2="107.72" y2="36.42"/>
		</g>
		<line class="st4" x1="79.66" y1="38.85" x2="77.36" y2="47.42"/>
		<line class="st4" x1="87.23" y1="38.87" x2="84.93" y2="47.44"/>
		<line class="st4" x1="94.32" y1="38.88" x2="92.03" y2="47.45"/>
		<line class="st4" x1="101.89" y1="38.9" x2="99.6" y2="47.47"/>
		<line class="st4" x1="108.52" y1="38.91" x2="106.22" y2="47.48"/>
		<line class="st4" x1="80.9" y1="49.09" x2="78.61" y2="57.65"/>
		<line class="st4" x1="88" y1="49.1" x2="85.7" y2="57.67"/>
		<line class="st4" x1="95.57" y1="49.12" x2="93.27" y2="57.69"/>
		<line class="st4" x1="102.19" y1="49.13" x2="99.9" y2="57.7"/>
	</g>
</g>
</svg>
