<?xml version="1.0" encoding="utf-8"?>
<!-- Generator: Adobe Illustrator 23.0.3, SVG Export Plug-In . SVG Version: 6.00 Build 0)  -->
<svg version="1.1" id="Layer_1" xmlns="http://www.w3.org/2000/svg" xmlns:xlink="http://www.w3.org/1999/xlink" x="0px" y="0px"
	 viewBox="0 0 128 128" style="enable-background:new 0 0 128 128;" xml:space="preserve">
<style type="text/css">
	.st0{fill:none;stroke:#000000;stroke-miterlimit:10;}
	.st1{fill:none;stroke:#000000;stroke-width:0.5;stroke-miterlimit:10;}
	.st2{fill:none;stroke:#000000;stroke-width:0.5;stroke-linejoin:bevel;stroke-miterlimit:10;}
	.st3{fill:none;stroke:#000000;stroke-width:0.5;stroke-linecap:round;stroke-linejoin:bevel;stroke-miterlimit:10;}
	.st4{fill:none;stroke:#000000;stroke-linecap:round;stroke-miterlimit:10;}
</style>
<g>
	<g>
		<path class="st0" d="M-0.06,104.37c12.81,0,12.81,4,25.62,4c12.81,0,12.81-4,25.62-4c12.81,0,12.81,4,25.62,4
			c12.81,0,12.81-4,25.63-4s12.81,4,25.63,4"/>
	</g>
	<g>
		<path class="st0" d="M-0.06,111.94c12.81,0,12.81,4,25.62,4c12.81,0,12.81-4,25.62-4c12.81,0,12.81,4,25.62,4
			c12.81,0,12.81-4,25.63-4s12.81,4,25.63,4"/>
	</g>
	<g>
		<path class="st0" d="M-0.06,119.5c12.81,0,12.81,4,25.62,4c12.81,0,12.81-4,25.62-4c12.81,0,12.81,4,25.62,4
			c12.81,0,12.81-4,25.63-4s12.81,4,25.63,4"/>
	</g>
	<line class="st1" x1="68.45" y1="107.58" x2="68.45" y2="96.35"/>
	<line class="st2" x1="59.55" y1="104.9" x2="59.55" y2="96.35"/>
	<line class="st3" x1="59.55" y1="96.35" x2="68.45" y2="96.35"/>
	<g>
		<line class="st4" x1="47.75" y1="103.66" x2="47.75" y2="85.54"/>
		<line class="st4" x1="80.25" y1="108.74" x2="80.25" y2="85.51"/>
		<line class="st4" x1="40.78" y1="90.19" x2="64" y2="73.91"/>
		<line class="st4" x1="64" y1="73.91" x2="87.22" y2="90.19"/>
	</g>
	<g>
		<g>
			<g>
				<path class="st4" d="M52.57,17.85C53.25,11.47,58.65,6.5,65.21,6.5c7.02,0,12.71,5.69,12.71,12.71c0,1.33-0.2,2.62-0.59,3.82"/>
				<path class="st4" d="M47.96,37.98c-5.85,0-10.6-4.74-10.6-10.6s4.74-10.6,10.6-10.6c4.59,0,8.5,2.92,9.97,7.01"/>
				<path class="st4" d="M78.27,17.61c0.67-0.14,1.36-0.21,2.07-0.21c5.68,0,10.29,4.61,10.29,10.29s-4.61,10.29-10.29,10.29"/>
			</g>
			<line class="st4" x1="47.85" y1="37.96" x2="80.72" y2="37.96"/>
		</g>
		<line class="st4" x1="48.03" y1="40.79" x2="45.36" y2="50.77"/>
		<line class="st4" x1="56.85" y1="40.81" x2="54.18" y2="50.79"/>
		<line class="st4" x1="65.12" y1="40.83" x2="62.44" y2="50.81"/>
		<line class="st4" x1="73.93" y1="40.85" x2="71.26" y2="50.83"/>
		<line class="st4" x1="81.65" y1="40.86" x2="78.97" y2="50.84"/>
		<line class="st4" x1="49.48" y1="52.71" x2="46.81" y2="62.69"/>
		<line class="st4" x1="57.75" y1="52.73" x2="55.08" y2="62.71"/>
		<line class="st4" x1="66.56" y1="52.75" x2="63.89" y2="62.73"/>
		<line class="st4" x1="74.28" y1="52.77" x2="71.61" y2="62.75"/>
	</g>
</g>
</svg>
