<?xml version="1.0" encoding="utf-8"?>
<!-- Generator: Adobe Illustrator 23.0.3, SVG Export Plug-In . SVG Version: 6.00 Build 0)  -->
<svg version="1.1" id="Layer_1" xmlns="http://www.w3.org/2000/svg" xmlns:xlink="http://www.w3.org/1999/xlink" x="0px" y="0px"
	 viewBox="0 0 128 128" style="enable-background:new 0 0 128 128;" xml:space="preserve">
<style type="text/css">
	.st0{fill:none;stroke:#000000;stroke-miterlimit:10;}
	.st1{fill:none;stroke:#000000;stroke-width:0.5;stroke-miterlimit:10;}
	.st2{fill:none;stroke:#000000;stroke-width:0.5;stroke-linejoin:bevel;stroke-miterlimit:10;}
	.st3{fill:none;stroke:#000000;stroke-width:0.5;stroke-linecap:round;stroke-linejoin:bevel;stroke-miterlimit:10;}
	.st4{fill:none;stroke:#000000;stroke-linecap:round;stroke-miterlimit:10;}
</style>
<g>
	<g>
		<g>
			<path class="st0" d="M0.68,98.38c12.66,0,12.66,4,25.32,4c12.66,0,12.66-4,25.32-4c12.66,0,12.66,4,25.33,4
				c12.66,0,12.66-4,25.33-4s12.66,4,25.33,4"/>
		</g>
		<g>
			<path class="st0" d="M0.68,104.87c12.66,0,12.66,4,25.32,4c12.66,0,12.66-4,25.32-4c12.66,0,12.66,4,25.33,4
				c12.66,0,12.66-4,25.33-4s12.66,4,25.33,4"/>
		</g>
		<g>
			<path class="st0" d="M0.68,111.37c12.66,0,12.66,4,25.32,4c12.66,0,12.66-4,25.32-4c12.66,0,12.66,4,25.33,4
				c12.66,0,12.66-4,25.33-4s12.66,4,25.33,4"/>
		</g>
		<line class="st1" x1="67.82" y1="101.41" x2="67.82" y2="91.78"/>
		<line class="st2" x1="60.18" y1="99.12" x2="60.18" y2="91.78"/>
		<line class="st3" x1="60.18" y1="91.78" x2="67.82" y2="91.78"/>
		<g>
			<line class="st4" x1="50.05" y1="98.05" x2="50.05" y2="82.5"/>
			<line class="st4" x1="77.95" y1="102.41" x2="77.95" y2="82.47"/>
			<line class="st4" x1="44.07" y1="86.49" x2="64" y2="72.51"/>
			<line class="st4" x1="64" y1="72.51" x2="83.93" y2="86.49"/>
		</g>
	</g>
	<g>
		<g>
			<g>
				<path class="st4" d="M54.19,24.38c0.58-5.48,5.22-9.74,10.85-9.74c6.03,0,10.92,4.89,10.92,10.92c0,1.14-0.18,2.25-0.5,3.28"/>
				<path class="st4" d="M50.23,41.66c-5.02,0-9.1-4.07-9.1-9.1s4.07-9.1,9.1-9.1c3.94,0,7.3,2.51,8.56,6.02"/>
				<path class="st4" d="M76.25,24.17c0.58-0.12,1.17-0.18,1.78-0.18c4.88,0,8.84,3.96,8.84,8.84s-3.96,8.84-8.84,8.84"/>
			</g>
			<line class="st4" x1="50.13" y1="41.64" x2="78.36" y2="41.64"/>
		</g>
		<line class="st4" x1="50.29" y1="44.07" x2="48" y2="52.64"/>
		<line class="st4" x1="57.86" y1="44.09" x2="55.57" y2="52.66"/>
		<line class="st4" x1="64.96" y1="44.1" x2="62.66" y2="52.67"/>
		<line class="st4" x1="72.53" y1="44.12" x2="70.23" y2="52.69"/>
		<line class="st4" x1="79.15" y1="44.13" x2="76.86" y2="52.7"/>
		<line class="st4" x1="51.53" y1="54.31" x2="49.24" y2="62.88"/>
		<line class="st4" x1="58.63" y1="54.32" x2="56.34" y2="62.89"/>
		<line class="st4" x1="66.2" y1="54.34" x2="63.91" y2="62.91"/>
		<line class="st4" x1="72.82" y1="54.35" x2="70.53" y2="62.92"/>
	</g>
</g>
</svg>
