<?xml version="1.0" encoding="utf-8"?>
<!-- Generator: Adobe Illustrator 23.0.3, SVG Export Plug-In . SVG Version: 6.00 Build 0)  -->
<svg version="1.1" id="Layer_1" xmlns="http://www.w3.org/2000/svg" xmlns:xlink="http://www.w3.org/1999/xlink" x="0px" y="0px"
	 viewBox="0 0 128 128" style="enable-background:new 0 0 128 128;" xml:space="preserve">
<style type="text/css">
	.st0{fill:none;stroke:#000000;stroke-miterlimit:10;}
	.st1{fill:none;stroke:#000000;stroke-linecap:round;stroke-miterlimit:10;}
</style>
<g>
	<g>
		<g>
			<path class="st0" d="M0.68,88.83c12.66,0,12.66,4,25.32,4c12.66,0,12.66-4,25.32-4c12.66,0,12.66,4,25.33,4
				c12.66,0,12.66-4,25.33-4s12.66,4,25.33,4"/>
		</g>
		<g>
			<path class="st0" d="M0.68,95.33c12.66,0,12.66,4,25.32,4c12.66,0,12.66-4,25.32-4c12.66,0,12.66,4,25.33,4
				c12.66,0,12.66-4,25.33-4s12.66,4,25.33,4"/>
		</g>
		<g>
			<path class="st0" d="M0.68,101.82c12.66,0,12.66,4,25.32,4c12.66,0,12.66-4,25.32-4c12.66,0,12.66,4,25.33,4
				c12.66,0,12.66-4,25.33-4s12.66,4,25.33,4"/>
		</g>
	</g>
	<g>
		<g>
			<g>
				<path class="st1" d="M54.19,33.92c0.58-5.48,5.22-9.74,10.85-9.74c6.03,0,10.92,4.89,10.92,10.92c0,1.14-0.18,2.25-0.5,3.28"/>
				<path class="st1" d="M50.23,51.21c-5.02,0-9.1-4.07-9.1-9.1s4.07-9.1,9.1-9.1c3.94,0,7.3,2.51,8.56,6.02"/>
				<path class="st1" d="M76.25,33.72c0.58-0.12,1.17-0.18,1.78-0.18c4.88,0,8.84,3.96,8.84,8.84s-3.96,8.84-8.84,8.84"/>
			</g>
			<line class="st1" x1="50.13" y1="51.19" x2="78.36" y2="51.19"/>
		</g>
		<line class="st1" x1="50.29" y1="53.62" x2="48" y2="62.19"/>
		<line class="st1" x1="57.86" y1="53.64" x2="55.57" y2="62.21"/>
		<line class="st1" x1="64.96" y1="53.65" x2="62.66" y2="62.22"/>
		<line class="st1" x1="72.53" y1="53.67" x2="70.23" y2="62.24"/>
		<line class="st1" x1="79.15" y1="53.68" x2="76.86" y2="62.25"/>
		<line class="st1" x1="51.53" y1="63.86" x2="49.24" y2="72.43"/>
		<line class="st1" x1="58.63" y1="63.87" x2="56.34" y2="72.44"/>
		<line class="st1" x1="66.2" y1="63.89" x2="63.91" y2="72.46"/>
		<line class="st1" x1="72.82" y1="63.9" x2="70.53" y2="72.47"/>
	</g>
</g>
</svg>
