<?xml version="1.0" encoding="utf-8"?>
<!-- Generator: Adobe Illustrator 23.0.3, SVG Export Plug-In . SVG Version: 6.00 Build 0)  -->
<svg version="1.1" id="Layer_1" xmlns="http://www.w3.org/2000/svg" xmlns:xlink="http://www.w3.org/1999/xlink" x="0px" y="0px"
	 viewBox="0 0 128 128" style="enable-background:new 0 0 128 128;" xml:space="preserve">
<style type="text/css">
	.st0{fill:none;stroke:#000000;stroke-linecap:round;stroke-miterlimit:10;}
</style>
<g>
	<g>
		<g>
			<path class="st0" d="M38.39,26.43C39.92,12.13,52.02,1,66.71,1c15.73,0,28.48,12.75,28.48,28.48c0,2.98-0.46,5.86-1.31,8.57"/>
			<path class="st0" d="M28.06,71.53c-13.11,0-23.74-10.63-23.74-23.74s10.63-23.74,23.74-23.74c10.29,0,19.05,6.54,22.34,15.7"/>
			<path class="st0" d="M95.97,25.88c1.5-0.31,3.06-0.47,4.65-0.47c12.73,0,23.06,10.32,23.06,23.06s-10.32,23.06-23.06,23.06"/>
		</g>
		<line class="st0" x1="27.81" y1="71.47" x2="101.46" y2="71.47"/>
	</g>
	<line class="st0" x1="28.23" y1="77.82" x2="22.25" y2="100.17"/>
	<line class="st0" x1="47.98" y1="77.86" x2="42" y2="100.22"/>
	<line class="st0" x1="66.5" y1="77.9" x2="60.51" y2="100.26"/>
	<line class="st0" x1="86.25" y1="77.94" x2="80.26" y2="100.3"/>
	<line class="st0" x1="103.53" y1="77.98" x2="97.55" y2="100.34"/>
	<line class="st0" x1="31.47" y1="104.52" x2="25.49" y2="126.88"/>
	<line class="st0" x1="49.99" y1="104.56" x2="44.01" y2="126.92"/>
	<line class="st0" x1="69.74" y1="104.6" x2="63.76" y2="126.96"/>
	<line class="st0" x1="87.02" y1="104.64" x2="81.04" y2="127"/>
</g>
</svg>
