<?xml version="1.0" encoding="utf-8"?>
<!-- Generator: Adobe Illustrator 23.0.3, SVG Export Plug-In . SVG Version: 6.00 Build 0)  -->
<svg version="1.1" id="Layer_1" xmlns="http://www.w3.org/2000/svg" xmlns:xlink="http://www.w3.org/1999/xlink" x="0px" y="0px"
	 viewBox="0 0 128 128" style="enable-background:new 0 0 128 128;" xml:space="preserve">
<style type="text/css">
	.st0{fill:none;stroke:#000000;stroke-linecap:round;stroke-miterlimit:10;}
</style>
<g>
	<g>
		<line class="st0" x1="100.03" y1="39.39" x2="68.86" y2="85.08"/>
		<line class="st0" x1="100.03" y1="39.39" x2="88.15" y2="76.46"/>
		<line class="st0" x1="68.86" y1="85.08" x2="88.9" y2="85.08"/>
		<line class="st0" x1="88.15" y1="76.46" x2="108.56" y2="76.46"/>
		<line class="st0" x1="108.93" y1="76.46" x2="77.02" y2="122.14"/>
		<line class="st0" x1="88.9" y1="85.08" x2="77.02" y2="122.14"/>
	</g>
	<g>
		<path class="st0" d="M39.51,25.32C40.97,11.65,52.54,1,66.59,1c15.05,0,27.24,12.2,27.24,27.24c0,2.86-0.44,5.61-1.25,8.19"/>
		<path class="st0" d="M29.62,68.46c-12.54,0-22.7-10.16-22.7-22.7s10.16-22.7,22.7-22.7c9.84,0,18.22,6.26,21.37,15.01"/>
		<path class="st0" d="M94.58,24.8c1.44-0.29,2.92-0.45,4.44-0.45c12.18,0,22.05,9.87,22.05,22.05s-9.87,22.05-22.05,22.05"/>
	</g>
	<line class="st0" x1="90.72" y1="68.4" x2="99.83" y2="68.4"/>
	<line class="st0" x1="29.39" y1="68.4" x2="80.2" y2="68.4"/>
	<g>
		<line class="st0" x1="49.16" y1="79.36" x2="31.21" y2="105.66"/>
		<line class="st0" x1="49.16" y1="79.36" x2="42.32" y2="100.7"/>
		<line class="st0" x1="31.21" y1="105.66" x2="42.75" y2="105.66"/>
		<line class="st0" x1="42.32" y1="100.7" x2="54.07" y2="100.7"/>
		<line class="st0" x1="54.28" y1="100.7" x2="35.91" y2="127"/>
		<line class="st0" x1="42.75" y1="105.66" x2="35.91" y2="127"/>
	</g>
</g>
</svg>
