<?xml version="1.0" encoding="utf-8"?>
<!-- Generator: Adobe Illustrator 23.0.3, SVG Export Plug-In . SVG Version: 6.00 Build 0)  -->
<svg version="1.1" id="Layer_1" xmlns="http://www.w3.org/2000/svg" xmlns:xlink="http://www.w3.org/1999/xlink" x="0px" y="0px"
	 viewBox="0 0 128 128" style="enable-background:new 0 0 128 128;" xml:space="preserve">
<style type="text/css">
	.st0{fill:none;stroke:#000000;stroke-width:0.75;stroke-linecap:round;stroke-miterlimit:10;}
	.st1{fill:none;stroke:#000000;stroke-width:2;stroke-linecap:round;stroke-miterlimit:10;}
</style>
<g>
	<g>
		<path class="st0" d="M36.99,54.01C38.6,39.5,51.36,28.2,66.86,28.2c16.59,0,30.04,12.95,30.04,28.91c0,3.03-0.48,5.95-1.38,8.7"/>
		<path class="st0" d="M26.09,99.8c-13.83,0-25.04-10.79-25.04-24.1s11.21-24.1,25.04-24.1c10.85,0,20.09,6.64,23.56,15.94"/>
		<path class="st0" d="M97.73,53.46c1.58-0.31,3.22-0.48,4.9-0.48c13.43,0,24.32,10.48,24.32,23.41c0,12.93-10.89,23.41-24.32,23.41
			"/>
	</g>
	<line class="st0" x1="25.83" y1="99.74" x2="103.51" y2="99.74"/>
</g>
<g>
	<path class="st1" d="M58.8,65.62c-0.77-4.96,2.3-9.69,7.03-11.12c5.22-1.58,10.52,1.45,12.56,5.8c2.6,5.56-0.7,11.94-4.02,13.05
		c-1.27,0.43-2.86,0.18-4.02,1.45c-0.51,0.56-0.79,1.26-1,2.9c-0.2,1.49-0.34,3.64,0,6.28"/>
	<ellipse cx="69.3" cy="90.17" rx="1.82" ry="1.75"/>
</g>
</svg>
